<?xml version="1.0" encoding="iso-8859-1"?>
<!-- Generator: Adobe Illustrator 18.0.0, SVG Export Plug-In . SVG Version: 6.00 Build 0)  -->
<!DOCTYPE svg PUBLIC "-//W3C//DTD SVG 1.1//EN" "http://www.w3.org/Graphics/SVG/1.1/DTD/svg11.dtd">
<svg version="1.1" id="Capa_1" xmlns="http://www.w3.org/2000/svg" xmlns:xlink="http://www.w3.org/1999/xlink" x="0px" y="0px" viewBox="0 0 54.144 54.144" style="enable-background:new 0 0 54.144 54.144;" xml:space="preserve">
	<g xmlns="http://www.w3.org/2000/svg">
		<path d="M52.999,27.084c-0.553,0-1,0.447-1,1v4c0,0.553,0.447,1,1,1s1-0.447,1-1v-4C53.999,27.531,53.552,27.084,52.999,27.084z" />
		<path d="M52.999,35.084c-0.553,0-1,0.447-1,1v2c0,0.553,0.447,1,1,1s1-0.447,1-1v-2C53.999,35.531,53.552,35.084,52.999,35.084z" />
		<path d="M52.999,41.084c-0.553,0-1,0.447-1,1v1c0,0.553,0.447,1,1,1s1-0.447,1-1v-1C53.999,41.531,53.552,41.084,52.999,41.084z" />
		<path d="M52.289,46.38c-0.19,0.181-0.29,0.44-0.29,0.7s0.1,0.521,0.29,0.71c0.189,0.19,0.45,0.29,0.71,0.29s0.52-0.1,0.71-0.29   c0.18-0.189,0.29-0.439,0.29-0.71c0-0.26-0.11-0.52-0.29-0.7C53.339,46.011,52.678,46,52.289,46.38z" />
		<path xmlns="http://www.w3.org/2000/svg" d="M 37.401 4.762 c -2.337 -2.337 -5.563 -3.678 -8.849 -3.678 c -2.791 0 -5.383 0.924 -7.495 2.672 c -2.646 2.19 -4.19 5.278 -4.351 8.696 c -0.158 3.372 1.116 6.672 3.496 9.052 l 0.198 0.199 c -1.443 -0.418 -2.947 -0.633 -4.462 -0.633 c -4.503 0 -8.823 1.92 -11.854 5.267 c -5.459 6.03 -5.446 15.466 0.03 21.48 c 3.033 3.332 7.351 5.243 11.845 5.243 c 4.273 0 8.291 -1.664 11.313 -4.687 c 4.883 -4.883 6.052 -12.395 2.96 -18.516 l 5.577 -5.577 c 1.885 -1.885 4.389 -2.923 7.052 -2.923 c 2.594 0 5.033 0.997 6.924 2.86 l 0.815 0.827 l 3.542 -3.542 l -16.741 -16.74 z M 38.158 13.449 l -9.041 9.041 c -0.305 0.304 -0.708 0.471 -1.136 0.471 s -0.831 -0.167 -1.135 -0.469 l -3.814 -3.816 c -1.624 -1.623 -2.471 -3.872 -2.324 -6.17 c 0.146 -2.295 1.281 -4.423 3.113 -5.837 c 1.359 -1.051 3.006 -1.606 4.76 -1.606 c 2.201 0 4.365 0.9 5.937 2.472 l 3.642 3.643 c 0.303 0.302 0.471 0.705 0.471 1.135 c -0.001 0.429 -0.169 0.832 -0.473 1.136 z M 6.848 29.25 a 1 1 0 0 1 17.66 16.21 c -6.488 5.832 -13.574 3.737 -17.63 -0.407 c -4.1 -4.457 -4.144 -11.009 -0.03 -15.803 z" />
		<path d="M 21.97 43.778 c -1.983 1.983 -4.62 3.075 -7.424 3.075 c -2.805 0 -5.441 -1.092 -7.425 -3.075 c -0.391 -0.391 -0.391 -1.023 0 -1.414 s 1.023 -0.391 1.414 0 c 3.314 3.315 8.706 3.313 12.021 0 c 0.391 -0.391 1.023 -0.391 1.414 0 S 22.361 43.388 21.97 43.778 z" />
	</g>
	<g></g>
	<g></g>
	<g></g>
	<g></g>
	<g></g>
	<g></g>
	<g></g>
	<g></g>
	<g></g>
	<g></g>
	<g></g>
	<g></g>
	<g></g>
	<g></g>
	<g></g>
</svg>
